<?xml version="1.0" encoding="utf-8"?>
<!-- Generator: Adobe Illustrator 21.0.2, SVG Export Plug-In . SVG Version: 6.00 Build 0)  -->
<svg version="1.1" id="Layer_1" xmlns="http://www.w3.org/2000/svg" xmlns:xlink="http://www.w3.org/1999/xlink" x="0px" y="0px"
	 viewBox="0 0 100 100" style="enable-background:new 0 0 100 100;" xml:space="preserve">
<g>
	<path d="M92.4,35.7l-9.4-9.3c0.5-1,0.8-2.1,0.8-3.3c0-1.8-0.7-3.6-2-4.9c-1.3-1.3-3.1-2-4.9-2c-1.2,0-2.3,0.3-3.3,0.8l-9.4-9.3
		c-0.8-0.8-2-0.8-2.8,0c-0.8,0.8-0.8,2,0,2.8l9.2,9.1l-2,2c-1.1-0.3-2.2-0.4-3.3-0.4c-3,0.1-5.6,1.3-7.5,3.4L47.8,36l-24.2-8.8
		c-3.7-1.4-8-0.4-10.8,2.4c-1.2,1.2-1.8,2.8-1.6,4.5c0.1,1.7,1,3.2,2.4,4.1L33.8,52L18.4,69.6l-3.5-1.7c0,0-0.1,0-0.1-0.1
		c-2.2-0.9-4.6-0.4-6.2,1.1C7.5,70,6.9,71.6,7,73.2c0.1,1.6,0.8,3,1.9,4.2L22.6,91c1.3,1.3,3,2,4.6,2c1.4,0,2.8-0.5,3.9-1.6
		c1.6-1.6,2-4,1.1-6.2c0,0,0-0.1-0.1-0.1l-1.7-3.5L48,66.3l13.8,20.2c1,1.4,2.5,2.3,4.1,2.4c0.2,0,0.3,0,0.5,0c1.5,0,2.9-0.6,4-1.6
		c2.8-2.8,3.8-7.1,2.4-10.8L64,52.3l11.4-10c2.1-1.9,3.3-4.5,3.4-7.5c0-1.2-0.1-2.3-0.4-3.5l2-1.9l9.1,9.1c0.4,0.4,0.9,0.6,1.4,0.6
		c0.5,0,1-0.2,1.4-0.6C93.2,37.7,93.2,36.5,92.4,35.7z M15.8,34.9c-0.6-0.4-0.7-0.9-0.7-1.2c0-0.3,0-0.8,0.5-1.3
		c1.7-1.7,4.3-2.3,6.6-1.5l2.3,0.8l-5.4,5.4L15.8,34.9z M22.5,39.5l6.2-6.2l6.2,2.3l-7.4,7.4L22.5,39.5z M30.8,45.2l8.2-8.1l6,2.2
		L36.4,49L30.8,45.2z M51,63.6l9.8-8.6l2.1,5.8l-8.2,8.2L51,63.6z M69.1,77.8c0.8,2.3,0.3,4.9-1.5,6.6c-0.5,0.5-1,0.5-1.3,0.5
		c-0.3,0-0.8-0.2-1.2-0.7l-2.3-3.4l5.4-5.4L69.1,77.8z M64.5,65l2.2,6.2l-6.2,6.2l-3.4-5L64.5,65z M72.8,39.3L26.7,79.6
		c-0.7,0.6-0.9,1.6-0.5,2.4l2.3,4.8c0.3,0.7,0.2,1.4-0.3,1.8c-0.7,0.7-2,0.5-2.8-0.4L11.8,74.6C11.3,74.1,11,73.5,11,73
		c0-0.3,0-0.8,0.4-1.2c0.3-0.3,0.6-0.4,1.1-0.4c0.2,0,0.5,0,0.8,0.1l4.8,2.3c0.8,0.4,1.8,0.2,2.4-0.5l40.3-46.1
		c1.1-1.3,2.8-2,4.7-2.1c2.4-0.1,4.8,1,6.7,2.8c1.9,1.9,2.9,4.3,2.8,6.7C74.9,36.5,74.1,38.2,72.8,39.3z M79,25.2l-2.3,2.3
		c-0.5-0.8-1.1-1.6-1.8-2.3c-0.7-0.7-1.6-1.4-2.4-1.9l2.3-2.3c1.1-1.1,3.1-1.1,4.2,0c0.6,0.6,0.9,1.3,0.9,2.1
		C79.9,23.8,79.6,24.6,79,25.2z"/>
	<path d="M63.5,33.6L49.5,47.7c-0.8,0.8-0.8,2,0,2.8c0.4,0.4,0.9,0.6,1.4,0.6c0.5,0,1-0.2,1.4-0.6l14.1-14.1c0.8-0.8,0.8-2,0-2.8
		C65.6,32.8,64.3,32.8,63.5,33.6z"/>
</g>
</svg>
